<?xml version="1.0" encoding="utf-8"?>
<!-- Generator: Adobe Illustrator 27.0.0, SVG Export Plug-In . SVG Version: 6.00 Build 0)  -->
<svg version="1.1" id="Layer_1" xmlns="http://www.w3.org/2000/svg" xmlns:xlink="http://www.w3.org/1999/xlink" x="0px" y="0px"
	 viewBox="0 0 1795 1797" style="enable-background:new 0 0 1795 1797;" xml:space="preserve">
<style type="text/css">
	.st0{fill:#FFFFFF;}
</style>
<rect x="414.5" y="450.6" class="st0" width="933.1" height="934.2"/>
<path d="M466.6,502.7v829.9h828.9V502.7H466.6z M526.4,563h709.3v709.3h-125.8v-162.4h-59.3v162.4H526.4L526.4,563L526.4,563z
	 M735.2,648.3L613.3,962.4h63l32.9-88.4h118.1l32.4,88.4h63.1L801,648.3H735.2L735.2,648.3z M765.5,711.7l40,109.2H725L765.5,711.7
	L765.5,711.7z M1708.8,898.5c0,448.1-363.2,811.3-811.3,811.3S86.2,1346.6,86.2,898.5S449.4,87.2,897.5,87.2
	S1708.8,450.4,1708.8,898.5z"/>
</svg>
