<svg width="98" height="98" viewBox="0 0 98 98" fill="none" xmlns="http://www.w3.org/2000/svg">
<path d="M34.2747 67C33.2057 65.7155 32.5057 64.1605 32.2506 62.5035C31.6371 58.8133 32.1438 55.2708 33.8392 51.9451C35.3676 48.9465 37.8368 46.9378 40.8401 45.56C43.0538 44.5331 45.4616 44.001 47.8985 44C50.1321 44 52.2945 44.497 54.42 45.1541C55.8847 45.6049 57.2995 46.2063 58.6421 46.9489C59.2255 47.2719 59.7199 47.6875 59.9199 48.3584C60.3307 49.7238 59.0982 51.1195 57.6712 50.86C56.5495 50.6529 55.4457 50.3505 54.3351 50.0813C52.5123 49.6382 50.684 49.2116 48.7982 49.1895C44.02 49.1343 40.3854 51.7325 38.664 56.3863C38.2394 57.5322 38.1833 58.7333 38.1066 59.9247C37.9943 61.6724 37.6026 63.3277 36.5864 64.787C35.965 65.6683 35.1799 66.4198 34.2747 67Z" fill="white"/>
<path d="M52.6242 73C52.1781 70.9581 50.9084 69.8502 49 69.4535C49.0277 69.3936 49.0343 69.3561 49.0554 69.3407C51.8085 67.207 53.8767 64.4399 55.5687 61.3541C56.8885 58.9503 58.0855 56.4825 59.3856 54.0607C59.9131 53.0571 60.5211 52.1029 61.2029 51.2087C62.1598 49.9838 63.5786 49.6957 65 50.3179C64.8205 50.9693 64.6898 51.6513 64.4496 52.2874C62.8962 56.3976 61.3362 60.5065 59.7419 64.6014C58.3389 68.2008 56.0161 70.9846 52.8063 72.9193C52.7473 72.9502 52.6864 72.9771 52.6242 73Z" fill="white"/>
<path d="M32 54C32.0537 52.2508 32.0617 50.4988 32.1732 48.7524C32.3651 45.7387 32.5396 42.7194 32.8711 39.7196C33.2738 36.0541 33.8309 32.4066 34.3329 28.7537C34.4403 27.971 34.5758 27.1911 34.7503 26.4237C35.0081 25.2804 35.8832 24.7679 36.9262 25.0993C37.5973 25.3096 38 25.8973 38 26.7705C37.9866 27.9209 37.9208 29.0712 37.8752 30.2215C37.7365 33.6494 37.5982 37.0763 37.4604 40.5022C37.3826 42.5383 37.3262 44.5772 37.251 46.6133C37.2494 46.7377 37.2013 46.8565 37.1168 46.9447C35.5624 48.1257 34.4685 49.7092 33.5007 51.4013C32.9946 52.2564 32.5356 53.1282 32.055 53.9958L32 54Z" fill="white"/>
<path d="M38.059 46C37.9835 43.7351 37.8324 41.4702 38.7323 39.3595C39.0504 38.6107 39.4839 37.9142 39.8855 37.2079C42.1263 33.2612 44.3703 29.3165 46.6174 25.3736C46.8684 24.9064 47.2323 24.5196 47.6711 24.2539C48.3219 23.8717 48.9873 23.9227 49.487 24.3955C49.7276 24.6304 49.8942 24.9392 49.9637 25.2794C50.0332 25.6196 50.0024 25.9745 49.8753 26.2952C49.3823 27.6173 48.8773 28.9338 48.3709 30.2503C46.685 34.6386 44.9986 39.0269 43.3117 43.4152C43.2764 43.5222 43.2195 43.6196 43.1451 43.7005C43.0706 43.7815 42.9805 43.844 42.881 43.8837C41.3832 44.5349 39.8921 45.2016 38.3983 45.8655C38.2949 45.9122 38.1902 45.949 38.059 46Z" fill="white"/>
<path d="M45 42.9918C45.5246 41.7495 45.9823 40.5717 46.5134 39.4269C46.6446 39.1331 46.9672 38.8828 47.2583 38.7102C51.9796 35.8998 56.7057 33.1029 61.4366 30.3197C61.9795 29.9996 62.5618 29.8454 63.1323 30.2156C63.6805 30.5713 64.0189 31.0891 63.9992 31.7754C63.9834 32.3327 63.6464 32.7213 63.2425 33.0493C61.6438 34.347 60.0451 35.6459 58.4346 36.9291C56.0163 38.8551 53.5835 40.7654 51.1639 42.6914C50.9266 42.8968 50.622 43.0067 50.3088 42.9997C48.6931 42.9812 47.076 42.9918 45.4564 42.9918H45Z" fill="white"/>
<path d="M38.6684 63C39.0297 63.666 39.3466 64.2895 39.6974 64.8895C40.9102 66.9667 42.436 68.6244 44.5747 69.4547C45.6284 69.864 46.7199 69.9608 47.8232 69.9916C48.455 69.9874 49.078 70.1582 49.6372 70.4889C50.5931 71.0875 50.9178 72.0777 51 73.2219C45.7836 75.2757 38.0438 73.1852 35 67.8777C36.801 66.8303 37.7921 64.9922 38.6684 63Z" fill="white"/>
<path d="M66 46.8731C65.8469 46.8178 65.6895 46.7821 65.5304 46.7665C64.9312 46.7848 64.4018 47.0909 63.9173 47.4808C63.3742 47.9178 62.866 48.4219 62.3441 48.9001C62.2369 48.9975 62.1398 49.1102 61.9853 49.2701C62.3939 47.8158 63.0877 46.5549 63.0155 45.0411L62.9171 45C62.8823 45.0713 62.8519 45.1456 62.8261 45.2223C62.4175 46.6584 62.0127 48.0945 61.6004 49.529C61.5601 49.629 61.5007 49.7157 61.4273 49.7818C61.1781 50.0498 60.929 50.3087 60.6512 50.592C60.4021 50.7961 59.9487 50.7869 60.0048 50.8737C60.0508 50.8509 60.4482 51.2027 60.939 50.8219C61.7449 50.0422 62.5359 49.2382 63.3592 48.4859C64.144 47.7701 64.9873 47.1731 65.9813 46.9889L66 46.8731Z" fill="white"/>
<circle cx="49" cy="49" r="48" stroke="white" stroke-width="2"/>
</svg>
