<?xml version="1.0" encoding="utf-8"?>
<!-- Generator: Adobe Illustrator 27.0.0, SVG Export Plug-In . SVG Version: 6.00 Build 0)  -->
<svg version="1.1" id="Layer_1" xmlns="http://www.w3.org/2000/svg" xmlns:xlink="http://www.w3.org/1999/xlink" x="0px" y="0px"
	 viewBox="0 0 1795 1797" style="enable-background:new 0 0 1795 1797;" xml:space="preserve">
<style type="text/css">
	.st0{fill-rule:evenodd;clip-rule:evenodd;fill:#FFFFFF;}
	.st1{fill:#FFFFFF;}
</style>
<path d="M1708.8,898.5c0,448.1-363.2,811.3-811.3,811.3S86.2,1346.6,86.2,898.5S449.4,87.2,897.5,87.2S1708.8,450.4,1708.8,898.5z"
	/>
<g>
	<path class="st0" d="M897.5,1118.6c121.6,0,220.1-98.6,220.1-220.1c0-121.6-98.6-220.1-220.1-220.1
		c-121.6,0-220.1,98.6-220.1,220.1C677.4,1020.1,775.9,1118.6,897.5,1118.6z M897.5,1045.3c81.1,0,146.8-65.7,146.8-146.8
		c0-81.1-65.7-146.8-146.8-146.8c-81.1,0-146.8,65.7-146.8,146.8C750.7,979.6,816.4,1045.3,897.5,1045.3z"/>
	<path class="st1" d="M1117.6,641.7c-20.3,0-36.7,16.4-36.7,36.7s16.4,36.7,36.7,36.7c20.3,0,36.7-16.4,36.7-36.7
		S1137.9,641.7,1117.6,641.7z"/>
	<path class="st0" d="M517.9,615.1c-24,47.1-24,108.7-24,232v102.7c0,123.3,0,184.9,24,232c21.1,41.4,54.8,75.1,96.2,96.2
		c47.1,24,108.7,24,232,24h102.7c123.3,0,184.9,0,232-24c41.4-21.1,75.1-54.8,96.2-96.2c24-47.1,24-108.7,24-232V847.1
		c0-123.3,0-184.9-24-232c-21.1-41.4-54.8-75.1-96.2-96.2c-47.1-24-108.7-24-232-24H846.1c-123.3,0-184.9,0-232,24
		C572.7,540,539,573.7,517.9,615.1z M948.9,568.3H846.1c-62.9,0-105.6,0.1-138.6,2.8c-32.2,2.6-48.6,7.4-60.1,13.2
		c-27.6,14.1-50.1,36.5-64.1,64.1c-5.8,11.5-10.6,27.9-13.2,60.1c-2.7,33-2.8,75.8-2.8,138.6v102.7c0,62.9,0.1,105.6,2.8,138.6
		c2.6,32.2,7.4,48.6,13.2,60.1c14.1,27.6,36.5,50.1,64.1,64.1c11.5,5.8,27.9,10.6,60.1,13.2c33,2.7,75.8,2.8,138.6,2.8h102.7
		c62.9,0,105.6-0.1,138.6-2.8c32.2-2.6,48.6-7.4,60.1-13.2c27.6-14.1,50.1-36.5,64.1-64.1c5.8-11.5,10.6-27.9,13.2-60.1
		c2.7-33,2.8-75.8,2.8-138.6V847.1c0-62.9-0.1-105.6-2.8-138.6c-2.6-32.2-7.4-48.6-13.2-60.1c-14.1-27.6-36.5-50.1-64.1-64.1
		c-11.5-5.8-27.9-10.6-60.1-13.2C1054.4,568.4,1011.7,568.3,948.9,568.3z"/>
</g>
</svg>
