<?xml version="1.0" encoding="utf-8"?>
<!-- Generator: Adobe Illustrator 27.0.0, SVG Export Plug-In . SVG Version: 6.00 Build 0)  -->
<svg version="1.1" id="baa49ce8-9636-4769-84f8-a810bd84e5fe"
	 xmlns="http://www.w3.org/2000/svg" xmlns:xlink="http://www.w3.org/1999/xlink" x="0px" y="0px" viewBox="0 0 285.7 50.8"
	 style="enable-background:new 0 0 285.7 50.8;" xml:space="preserve">
<style type="text/css">
	.st0{stroke:#1D1D1B;stroke-width:3.74;stroke-miterlimit:10;}
</style>
<g>
	<path d="M-632.1-335.6c-7.8-9.3-12.9-20.6-14.8-32.6c-4.5-26.7-0.8-52.4,11.6-76.5c11.2-21.7,29.2-36.3,51.1-46.2
		c16.2-7.4,33.7-11.3,51.5-11.3c16.3,0,32.1,3.6,47.6,8.4c10.7,3.3,21,7.6,30.8,13c4.3,2.3,7.9,5.4,9.3,10.2c3,9.9-6,20-16.4,18.1
		c-8.2-1.5-16.2-3.7-24.4-5.6c-13.3-3.2-26.7-6.3-40.4-6.5c-34.9-0.4-61.4,18.4-74,52.1c-3.1,8.3-3.5,17-4.1,25.6
		c-0.8,12.7-3.7,24.6-11.1,35.2C-619.8-345.2-625.5-339.8-632.1-335.6z"/>
	<path d="M-498.5-296.2c-3.4-14.7-13-22.6-27.5-25.5c0.2-0.4,0.3-0.7,0.4-0.8c20.9-15.3,36.5-35.2,49.4-57.4
		c10-17.3,19.1-35,28.9-52.4c4-7.2,8.6-14.1,13.8-20.5c7.2-8.8,18-10.9,28.8-6.4c-1.4,4.7-2.4,9.6-4.2,14.1
		c-11.8,29.5-23.6,59-35.7,88.5c-10.6,25.9-28.2,45.9-52.5,59.8C-497.6-296.6-498-296.4-498.5-296.2z"/>
	<path d="M-650.9-432.2c0.4-12.6,0.5-25.1,1.3-37.7c1.4-21.6,2.7-43.3,5.2-64.9c3-26.3,7.2-52.5,10.9-78.7
		c0.8-5.6,1.8-11.2,3.1-16.7c1.9-8.2,8.4-11.9,16.2-9.5c5,1.5,8,5.7,8,12c-0.1,8.3-0.6,16.5-0.9,24.8c-1,24.6-2.1,49.2-3.1,73.8
		c-0.6,14.6-1,29.3-1.6,43.9c0,0.9-0.4,1.7-1,2.4c-11.6,8.5-19.7,19.9-26.9,32c-3.8,6.1-7.2,12.4-10.8,18.6L-650.9-432.2z"/>
	<path d="M-603-490.5c-0.6-16-1.7-32,5.1-46.9c2.4-5.3,5.7-10.2,8.7-15.2c16.9-27.9,33.8-55.7,50.8-83.6c1.9-3.3,4.6-6,8-7.9
		c4.9-2.7,9.9-2.3,13.7,1c3.7,3.4,4.9,8.8,2.9,13.4c-3.7,9.3-7.5,18.6-11.4,27.9c-12.7,31-25.4,62-38.2,93c-0.5,1.5-1.7,2.7-3.2,3.3
		c-11.3,4.6-22.5,9.3-33.8,14C-601.2-491.1-602-490.8-603-490.5z"/>
	<path d="M-555.5-508.5c4-9.4,7.5-18.4,11.5-27.1c1-2.2,3.5-4.1,5.7-5.4c36-21.3,72-42.6,108.1-63.7c4.1-2.4,8.6-3.6,12.9-0.8
		c4.2,2.7,6.8,6.6,6.6,11.8c-0.1,4.2-2.7,7.2-5.8,9.7c-12.2,9.8-24.4,19.7-36.7,29.5c-18.4,14.6-37,29.1-55.4,43.7
		c-1.8,1.6-4.1,2.4-6.5,2.3c-12.3-0.1-24.6-0.1-37-0.1H-555.5z"/>
	<path d="M-600.9-362.4c2.8,4.5,5.2,8.8,7.9,12.9c9.3,14.2,21,25.5,37.4,31.1c8.1,2.8,16.5,3.5,24.9,3.7c4.8,0,9.6,1.1,13.9,3.4
		c7.3,4.1,9.8,10.8,10.5,18.6c-40,14-99.4-0.2-122.7-36.4C-615.2-336.3-607.6-348.9-600.9-362.4z"/>
	<path d="M-396.1-482.9c-1.2-0.4-2.5-0.6-3.8-0.7c-4.8,0.1-9.1,2.1-13,4.7c-4.4,2.9-8.4,6.2-12.6,9.3c-0.9,0.6-1.6,1.4-2.9,2.4
		c3.3-9.6,8.9-17.8,8.3-27.8l-0.8-0.3c-0.3,0.5-0.5,1-0.7,1.5c-3.3,9.4-6.5,18.9-9.8,28.3c-0.3,0.7-0.8,1.2-1.4,1.7
		c-2,1.8-4,3.5-6.2,5.3c-2,1.3-5.6,1.3-5.2,1.9c0.4-0.1,3.6,2.2,7.5-0.3c6.5-5.1,12.8-10.4,19.4-15.3c6.3-4.7,13.1-8.6,21-9.8
		L-396.1-482.9z"/>
	<path class="st0" d="M-211.9-432.2l32.4-53.5c3.4-5.7,6.3-14.1,5.8-20.7v-0.2h23.7l-7,4.8c-5.8,4-12.8,10.3-16.2,16.1l-34.8,56.8
		v60.5c0.2,6.8,2.2,13.5,5.8,19.4l1.9,2.4h-45.3l1.5-2.4c3.4-5.3,6-13.2,6-19.4v-48l-37.5-68.6c-3.7-6.7-8.7-12.6-14.8-17.4
		l-5.3-4.2h52.5v0.4c-1.6,7.1-0.8,14.6,2.4,21.1L-211.9-432.2z"/>
	<path class="st0" d="M-128.7-378.5c6,17.4,18.6,27.3,35.3,27.3c13.5,0,31.9-6.6,36.1-27.3l3.1,3.1c-4.1,14.7-18.2,31-48.2,31
		c-35.6,0-60.5-23.8-60.5-58.7c0-35.6,25.2-60.1,62.9-60.1c27.1,0,42.8,12.8,42.8,31.2C-57.1-410.4-79.1-391.7-128.7-378.5z
		 M-84.4-438.8c0-13.4-7.5-19.8-17.2-19.8c-17.9,0-31,22.2-31,53.2c-0.1,7.6,0.8,15.1,2.7,22.4C-102.5-400.5-84.4-418.3-84.4-438.8z
		"/>
	<path class="st0" d="M-44.5-506.6h37.8v74.8C1-451.3,17-463.2,38-463.2c29.3,0,50.6,23.5,50.6,57.2c0,36.7-26.4,61.6-64.8,61.6
		c-32.7,0-60.8-17.8-60.8-53.7v-86.7c-0.1-6.7-2.1-13.3-5.8-18.9L-44.5-506.6z M23.5-348.8c20.8,0,35.1-22,35.1-53.5
		c0-31-13.8-51.7-33.6-51.7c-18.4,0-31.2,17.8-31.7,51v4.8C-6.7-362.9,7.3-348.8,23.5-348.8z"/>
	<path class="st0" d="M248.6-344.4c-47.9,0-84.2-32.8-84.2-82.1c0-49.5,36.3-82.3,85.2-82.3c35.3,0,60.5,17.4,60.5,38.3
		c0,13.9-10.7,20.9-30.5,17.6c7.5-25.7-5.1-51.3-31.7-51.3c-29,0-52.8,30.6-52.8,76.3s23.7,76.6,60,76.6c10.3,0,20.5-2.4,29.8-7
		v-60.1h-0.7c-14.3,0-29.8,6.4-39.2,16.3l-1.9,2l5.1-22.9h67v76.3l-2.4-0.9c-10.7-4-24.7-3.5-43.8,0.9
		C262.2-345,255.4-344.3,248.6-344.4z"/>
	<path class="st0" d="M452.3-368.4c0.1,6.8,2.1,13.5,5.6,19.4l1.9,2.4h-37.8v-11.2c-6.3,8.6-18.4,13.4-35.3,13.4
		c-29.5,0-49.8-14.7-49.8-36.3c0-27.7,33.6-42.2,85.2-35.2v-5.8c0-24-9.9-37-28.6-37c-17.9,0-26.1,11.7-19.6,33.7
		c-17.7,3.1-27.6-2.6-27.6-13.2c0-14.5,17.4-25.1,50.3-25.1c36.3,0,55.7,13,55.7,42.2V-368.4z M422.1-411.3
		c-34.8-4.8-54.9,5.9-54.9,29.3c0,18,11.6,30.8,29.3,30.8c14.5,0,25.4-8.8,25.7-22V-411.3z"/>
	<path class="st0" d="M523.3-346.6H478l1.7-2.4c3.7-5.8,5.7-12.5,5.8-19.4v-116.4c-0.1-6.7-2.1-13.3-5.8-18.9l-1.7-2.9h37.8v138.2
		c0.1,6.9,2.1,13.6,5.8,19.4L523.3-346.6z"/>
	<path class="st0" d="M587.4-346.6h-45.3l1.7-2.4c3.7-5.8,5.7-12.5,5.8-19.4v-116.4c-0.1-6.7-2.1-13.3-5.8-18.9l-1.7-2.9h37.8v138.2
		c0.1,6.9,2.1,13.6,5.8,19.4L587.4-346.6z"/>
	<path class="st0" d="M640.6-378.5c6,17.4,18.6,27.3,35.3,27.3c13.6,0,31.9-6.6,36.1-27.3l3.1,3.1c-4.1,14.7-18.2,31-48.2,31
		c-35.6,0-60.5-23.8-60.5-58.7c0-35.6,25.2-60.1,62.9-60.1c27.1,0,42.8,12.8,42.8,31.2C712.3-410.4,690.2-391.7,640.6-378.5z
		 M684.9-438.8c0-13.4-7.5-19.8-17.2-19.8c-17.9,0-31,22.2-31,53.2c-0.1,7.6,0.8,15.1,2.7,22.4C666.8-400.5,684.9-418.3,684.9-438.8
		z"/>
	<path class="st0" d="M779.5-346.6h-45.2l1.7-2.4c3.7-5.8,5.7-12.5,5.8-19.4v-70.8c-0.1-6.8-2.1-13.4-5.8-19.1l-1.7-2.4H772v26.4
		c6.8-18,20.1-28.8,39.4-28.8c17.7,0,28.6,9.2,28.6,22.9c0,12.8-9.7,18.5-27.1,15.4c6-20.5,2.4-31.2-10.2-31.2
		c-17.2,0-30.7,20.9-30.7,53.5v34.3c0.1,6.9,2.1,13.6,5.8,19.4L779.5-346.6z"/>
	<path class="st0" d="M863.7-439.9c-2.7-6.3-6.8-12-11.9-16.7l-4.6-4.2h50.1l-1,1.8c-2.6,6.1-2.7,13-0.2,19.1l30.5,72.8l31.7-72.8
		c2.4-6.2,2.4-13,0-19.1l-0.7-1.8h22.8l-4.4,4.2c-5.2,4.7-9.4,10.4-12.3,16.7L923-346.6c-15,33.7-28.1,48-50.3,48
		c-17.9,0-32.9-9-32.9-23.8c0-11.9,9.7-17.6,27.3-14.3c-6.5,21.3-1.9,33.4,10.9,33.4c9.2,0,18.4-6.8,26.9-19.4
		c5.3-7.3-1.9-24-11.6-46.6L863.7-439.9z"/>
</g>
<path d="M280.8,9.7H4.9C2.2,9.7,0,7.6,0,4.9v0C0,2.2,2.2,0,4.9,0l276,0c2.7,0,4.9,2.2,4.9,4.9v0C285.7,7.6,283.5,9.7,280.8,9.7z"/>
<path d="M280.8,50.8H4.9C2.2,50.8,0,48.7,0,46v0c0-2.7,2.2-4.9,4.9-4.9h276c2.7,0,4.9,2.2,4.9,4.9v0
	C285.7,48.7,283.5,50.8,280.8,50.8z"/>
</svg>
