<svg xmlns="http://www.w3.org/2000/svg" viewBox="0 0 308 308"><defs><style>.cls-1{fill:#f9f9f9;fill-rule:evenodd;}</style></defs><title>what</title><g id="Layer_2" data-name="Layer 2"><g id="Layer_1-2" data-name="Layer 1"><circle cx="154" cy="154" r="154"/><path class="cls-1" d="M225.27,79.67A97.63,97.63,0,0,0,71.62,197.43L57.77,248l51.75-13.57a97.69,97.69,0,0,0,46.65,11.88h0A97.63,97.63,0,0,0,225.27,79.67M156.21,229.82h0a81,81,0,0,1-41.3-11.3l-3-1.76-30.71,8.05,8.2-29.93-1.93-3.07a81.15,81.15,0,1,1,68.73,38m44.51-60.75c-2.44-1.22-14.43-7.12-16.67-7.93s-3.86-1.22-5.48,1.22-6.3,7.93-7.73,9.56-2.84,1.83-5.28.61-10.3-3.79-19.62-12.1a73.57,73.57,0,0,1-13.57-16.89c-1.42-2.45-.15-3.77,1.07-5s2.44-2.85,3.66-4.27a16.6,16.6,0,0,0,2.44-4.07,4.49,4.49,0,0,0-.2-4.27c-.61-1.22-5.49-13.23-7.53-18.11s-4-4.11-5.48-4.19-3-.08-4.68-.08a8.94,8.94,0,0,0-6.5,3.05c-2.24,2.44-8.54,8.34-8.54,20.34s8.74,23.6,10,25.23,17.2,26.26,41.67,36.82a142,142,0,0,0,13.91,5.14,33.47,33.47,0,0,0,15.36,1c4.69-.7,14.43-5.9,16.46-11.59s2-10.58,1.43-11.6-2.24-1.63-4.68-2.85"/></g></g></svg>